<svg version="1.1" id="Layer_1" xmlns="http://www.w3.org/2000/svg" xmlns:xlink="http://www.w3.org/1999/xlink" x="0px" y="0px"
	 width="100%" viewBox="0 0 1440 583" enable-background="new 0 0 1440 583" xml:space="preserve">
<path fill="#FFFFFF" opacity="1.000000" stroke="none" 
	d="
M1.000003,496.000000 
	C1.000000,331.016815 1.000000,166.033661 1.000000,1.025241 
	C480.934204,1.025241 960.868408,1.025241 1440.901367,1.025241 
	C1440.901367,195.247696 1440.901367,389.495453 1440.901367,583.871582 
	C961.000000,583.871582 481.000031,583.871582 1.000000,583.871582 
	C1.000000,559.573120 1.000000,535.242493 1.387249,510.606812 
	C5.942002,546.391174 24.829437,567.956665 59.560429,575.621948 
	C78.474945,579.796509 97.605690,579.178223 116.666267,576.474304 
	C124.327187,575.387573 131.901810,573.692383 139.241058,572.325256 
	C139.241058,545.342957 139.241058,519.243408 139.241058,493.055359 
	C117.863945,493.055359 96.765152,493.055359 75.413429,493.055359 
	C75.413429,503.021454 75.413429,512.759888 75.413429,522.956909 
	C85.271469,522.956909 95.009407,522.956909 104.806519,522.956909 
	C104.806519,531.454407 104.806519,539.489746 104.806519,548.831421 
	C97.837845,548.831421 91.211929,549.012512 84.598709,548.799438 
	C58.557415,547.960388 42.384602,533.943970 39.497322,508.712006 
	C36.552059,482.973358 49.317398,461.223480 75.396194,454.870880 
	C92.719666,450.651031 109.715942,452.085236 126.313858,458.395599 
	C130.524475,459.996460 134.571701,462.027069 138.900848,463.952179 
	C138.900848,452.765686 138.900848,442.114838 138.900848,431.109955 
	C109.800125,419.971069 80.396645,417.614960 50.847088,428.797485 
	C25.132372,438.528748 9.368745,457.281677 3.438811,484.190247 
	C2.573818,488.115356 1.810415,492.062866 1.000003,496.000000 
M1275.427124,502.961517 
	C1206.841064,545.443115 1133.911865,552.335999 1056.935425,529.995483 
	C1058.046509,531.788147 1059.382812,533.338501 1061.069946,534.018250 
	C1108.209106,553.009705 1156.921143,558.410828 1207.028442,550.132935 
	C1270.157837,539.703613 1324.013306,511.207397 1366.986572,463.923126 
	C1424.838379,400.267761 1447.975708,325.089020 1435.967773,239.827179 
	C1427.691284,181.059723 1401.509521,130.737503 1359.870605,88.601967 
	C1326.282593,54.613232 1286.049194,31.785858 1240.213135,18.365875 
	C1192.558594,4.413451 1144.385742,-0.997236 1095.191895,8.042239 
	C1077.091797,11.368183 1059.614868,16.700010 1044.529053,27.866877 
	C1036.851685,33.549881 1031.741333,40.769630 1030.982788,50.694599 
	C1030.125488,61.911499 1032.791992,72.115051 1038.805054,81.562035 
	C1045.822144,92.586372 1055.299927,101.132286 1065.864990,108.562469 
	C1089.339966,125.071915 1115.565063,135.751480 1142.664429,145.026627 
	C1146.035400,135.748016 1149.181519,126.832817 1152.514038,117.987755 
	C1155.837158,109.167122 1159.346924,100.416779 1162.861084,91.415009 
	C1160.959839,90.799217 1159.381836,90.316650 1157.822998,89.778854 
	C1139.717773,83.532509 1121.653809,77.081871 1105.624268,66.349030 
	C1099.884888,62.506142 1094.343506,57.904663 1089.941528,52.624298 
	C1080.895874,41.773388 1083.277710,28.957230 1095.758789,22.423054 
	C1102.546875,18.869308 1110.257812,16.308903 1117.834106,15.162927 
	C1150.585449,10.209025 1182.989014,13.004440 1214.701660,22.226994 
	C1276.154175,40.098293 1325.119385,75.356705 1359.163818,129.778229 
	C1399.301147,193.940002 1408.597412,263.564636 1391.318115,336.628296 
	C1374.719360,406.814880 1336.709717,462.709869 1275.427124,502.961517 
M551.085510,432.470703 
	C549.096741,427.854889 545.791077,424.429169 540.675659,424.333313 
	C526.403015,424.065887 512.121948,424.240356 496.826538,424.240356 
	C493.256592,474.809753 489.698273,525.214355 486.123535,575.851685 
	C498.082123,575.851685 508.947083,575.851685 519.979736,575.851685 
	C521.794678,535.170898 523.595337,494.809540 525.396057,454.448181 
	C525.578613,454.361298 525.761169,454.274414 525.943787,454.187531 
	C538.171448,494.836060 550.399109,535.484558 562.584534,575.992615 
	C575.911133,575.992615 588.877258,575.992615 601.719238,575.992615 
	C613.896179,535.459534 626.011292,495.132141 638.126465,454.804749 
	C638.380554,454.890808 638.634644,454.976868 638.888733,455.062927 
	C640.704895,495.373749 642.521118,535.684570 644.331421,575.864319 
	C655.685425,575.864319 666.447021,575.864319 678.228699,575.864319 
	C674.605835,525.090393 671.010254,474.698212 667.392456,423.995087 
	C654.236206,423.995087 642.100159,423.965424 629.964294,424.003540 
	C618.163269,424.040588 614.893433,425.899261 611.189209,437.161285 
	C605.747925,453.704346 600.720642,470.397614 596.039551,487.172760 
	C591.180908,504.584198 586.944519,522.169312 582.078308,541.067505 
	C580.178894,533.336487 578.828369,526.875610 576.997925,520.553711 
	C568.554626,491.391510 559.977661,462.268066 551.085510,432.470703 
M940.221497,291.276062 
	C981.080627,332.884399 1031.063721,359.412231 1085.260254,379.896362 
	C1088.774048,359.272858 1092.142456,339.503387 1095.558960,319.450989 
	C1094.169800,318.897736 1092.807129,318.350739 1091.441284,317.811615 
	C1058.065796,304.636688 1025.896606,289.153137 996.791260,267.902496 
	C967.991028,246.874649 943.959045,221.720947 928.769958,188.924103 
	C920.423767,170.902679 915.385742,152.373474 919.032898,132.322021 
	C919.686340,128.729645 920.402527,125.148689 921.089661,121.562454 
	C919.354431,122.473770 918.381714,123.591721 917.745667,124.876381 
	C910.082275,140.355026 902.387695,155.819473 894.913391,171.389465 
	C893.498230,174.337509 892.392090,177.693146 892.199341,180.923767 
	C891.381287,194.630920 892.334045,208.231506 896.626892,221.384491 
	C905.320618,248.021957 920.557800,270.620300 940.221497,291.276062 
M448.236450,550.731079 
	C460.696106,534.494751 466.237640,516.153931 465.187531,495.726837 
	C463.125366,455.612122 434.037964,424.368469 394.382751,419.799255 
	C338.191040,413.324615 292.987976,460.783203 305.733185,519.083801 
	C312.610291,550.541748 332.985352,571.225708 364.364197,578.636597 
	C397.140930,586.377625 425.587219,577.478210 448.236450,550.731079 
M974.192200,445.333496 
	C966.761902,434.639252 956.329773,427.808350 943.755249,426.302032 
	C928.301819,424.450836 912.613831,424.327637 897.015869,424.003479 
	C888.291077,423.822205 879.543274,424.746338 870.743713,425.175415 
	C870.743713,475.892059 870.743713,525.965515 870.743713,576.260132 
	C882.267212,576.260132 893.509399,576.260132 905.125977,576.260132 
	C905.125977,557.216980 905.125977,538.435852 905.125977,519.836792 
	C908.328613,519.836792 911.194946,520.137756 913.971924,519.767822 
	C918.384460,519.179993 920.616455,521.122070 923.020874,524.747192 
	C932.484619,539.015503 942.261169,553.088318 952.349426,566.921692 
	C954.680481,570.118103 958.388855,572.728516 962.008362,574.486755 
	C971.960022,579.321411 991.852661,579.907349 1002.294006,576.460571 
	C986.355225,555.902405 970.314453,535.212708 954.705933,515.080444 
	C961.095215,510.114105 967.039978,506.543182 971.656494,501.704956 
	C984.690002,488.045563 985.692810,464.051941 974.192200,445.333496 
M971.676575,167.806412 
	C980.765564,181.119720 991.881775,192.548233 1004.314087,202.727249 
	C1029.528442,223.371506 1057.934814,238.529816 1087.834595,251.081848 
	C1094.854248,254.028717 1101.976562,256.731201 1109.363647,259.670227 
	C1114.592529,240.017365 1119.661865,220.964310 1124.788086,201.697571 
	C1123.744873,201.287903 1122.845459,200.923889 1121.938599,200.580185 
	C1094.317505,190.112518 1067.520508,177.980606 1043.251343,160.899414 
	C1024.539551,147.729675 1008.009583,132.428986 997.251953,111.791740 
	C986.075928,90.352028 984.569702,69.294907 999.965332,48.967632 
	C1000.510498,48.247837 1000.619324,47.197514 1000.931519,46.301235 
	C1000.516785,45.972843 1000.102051,45.644447 999.687317,45.316055 
	C988.962769,54.156567 978.109619,62.846699 967.551331,71.881500 
	C957.751465,80.267456 953.568787,91.212959 953.049255,104.072990 
	C952.113831,127.228424 958.587524,148.074585 971.676575,167.806412 
M836.764160,534.701599 
	C821.781433,499.436768 806.790955,464.175232 791.829529,428.901398 
	C790.532166,425.842682 789.108643,423.777313 785.029663,424.036133 
	C777.897644,424.488678 770.683228,424.582764 763.566895,424.021118 
	C758.580200,423.627502 756.182434,425.349060 754.326843,429.809448 
	C737.767883,469.612335 720.955994,509.310120 704.411133,549.118835 
	C700.759277,557.905457 697.870239,567.009155 694.430054,576.519592 
	C706.462341,576.519592 717.599121,576.612732 728.729004,576.380371 
	C729.884766,576.356323 731.575439,574.607361 732.044800,573.307312 
	C736.488342,560.999390 740.720825,548.615295 745.040833,536.176392 
	C763.161072,536.176392 780.974304,536.265442 798.784973,536.091309 
	C801.856750,536.061340 802.253479,537.871155 802.957520,539.903442 
	C807.174500,552.077148 811.404663,564.246277 815.581299,576.275513 
	C827.842590,576.275513 839.749023,576.275513 852.337097,576.275513 
	C847.111694,562.368774 842.052673,548.904663 836.764160,534.701599 
M255.499725,483.830231 
	C242.074509,483.830231 228.649292,483.830231 215.219635,483.830231 
	C215.219635,473.919495 215.219635,464.654968 215.219635,454.882355 
	C235.807159,454.882355 256.185425,454.882355 276.554443,454.882355 
	C276.554443,444.628540 276.554443,434.888763 276.554443,425.107483 
	C244.028885,425.107483 211.796600,425.107483 179.399200,425.107483 
	C179.399200,475.604523 179.399200,525.817322 179.399200,576.221802 
	C212.357147,576.221802 245.074905,576.221802 277.767090,576.221802 
	C277.767090,566.147522 277.767090,556.376282 277.767090,546.161743 
	C256.813690,546.161743 236.092209,546.161743 215.363159,546.161743 
	C215.363159,535.178528 215.363159,524.646423 215.363159,513.717407 
	C235.454681,513.717407 255.184128,513.717407 274.718292,513.717407 
	C274.718292,503.546478 274.718292,493.782043 274.718292,483.830231 
	C268.455139,483.830231 262.477386,483.830231 255.499725,483.830231 
z"/>
<path fill="#030303" opacity="1.000000" stroke="none" 
	d="
M1.000003,496.464661 
	C1.810415,492.062866 2.573818,488.115356 3.438811,484.190247 
	C9.368745,457.281677 25.132372,438.528748 50.847088,428.797485 
	C80.396645,417.614960 109.800125,419.971069 138.900848,431.109955 
	C138.900848,442.114838 138.900848,452.765686 138.900848,463.952179 
	C134.571701,462.027069 130.524475,459.996460 126.313858,458.395599 
	C109.715942,452.085236 92.719666,450.651031 75.396194,454.870880 
	C49.317398,461.223480 36.552059,482.973358 39.497322,508.712006 
	C42.384602,533.943970 58.557415,547.960388 84.598709,548.799438 
	C91.211929,549.012512 97.837845,548.831421 104.806519,548.831421 
	C104.806519,539.489746 104.806519,531.454407 104.806519,522.956909 
	C95.009407,522.956909 85.271469,522.956909 75.413429,522.956909 
	C75.413429,512.759888 75.413429,503.021454 75.413429,493.055359 
	C96.765152,493.055359 117.863945,493.055359 139.241058,493.055359 
	C139.241058,519.243408 139.241058,545.342957 139.241058,572.325256 
	C131.901810,573.692383 124.327187,575.387573 116.666267,576.474304 
	C97.605690,579.178223 78.474945,579.796509 59.560429,575.621948 
	C24.829437,567.956665 5.942002,546.391174 1.387249,510.150879 
	C1.000000,505.643097 1.000000,501.286194 1.000003,496.464661 
z"/>
<path fill="#035C9C" opacity="1.000000" stroke="none" 
	d="
M1275.732422,502.765320 
	C1336.709717,462.709869 1374.719360,406.814880 1391.318115,336.628296 
	C1408.597412,263.564636 1399.301147,193.940002 1359.163818,129.778229 
	C1325.119385,75.356705 1276.154175,40.098293 1214.701660,22.226994 
	C1182.989014,13.004440 1150.585449,10.209025 1117.834106,15.162927 
	C1110.257812,16.308903 1102.546875,18.869308 1095.758789,22.423054 
	C1083.277710,28.957230 1080.895874,41.773388 1089.941528,52.624298 
	C1094.343506,57.904663 1099.884888,62.506142 1105.624268,66.349030 
	C1121.653809,77.081871 1139.717773,83.532509 1157.822998,89.778854 
	C1159.381836,90.316650 1160.959839,90.799217 1162.861084,91.415009 
	C1159.346924,100.416779 1155.837158,109.167122 1152.514038,117.987755 
	C1149.181519,126.832817 1146.035400,135.748016 1142.664429,145.026627 
	C1115.565063,135.751480 1089.339966,125.071915 1065.864990,108.562469 
	C1055.299927,101.132286 1045.822144,92.586372 1038.805054,81.562035 
	C1032.791992,72.115051 1030.125488,61.911499 1030.982788,50.694599 
	C1031.741333,40.769630 1036.851685,33.549881 1044.529053,27.866877 
	C1059.614868,16.700010 1077.091797,11.368183 1095.191895,8.042239 
	C1144.385742,-0.997236 1192.558594,4.413451 1240.213135,18.365875 
	C1286.049194,31.785858 1326.282593,54.613232 1359.870605,88.601967 
	C1401.509521,130.737503 1427.691284,181.059723 1435.967773,239.827179 
	C1447.975708,325.089020 1424.838379,400.267761 1366.986572,463.923126 
	C1324.013306,511.207397 1270.157837,539.703613 1207.028442,550.132935 
	C1156.921143,558.410828 1108.209106,553.009705 1061.069946,534.018250 
	C1059.382812,533.338501 1058.046509,531.788147 1056.935425,529.995483 
	C1133.911865,552.335999 1206.841064,545.443115 1275.732422,502.765320 
z"/>
<path fill="#020202" opacity="1.000000" stroke="none" 
	d="
M551.267090,432.800720 
	C559.977661,462.268066 568.554626,491.391510 576.997925,520.553711 
	C578.828369,526.875610 580.178894,533.336487 582.078308,541.067505 
	C586.944519,522.169312 591.180908,504.584198 596.039551,487.172760 
	C600.720642,470.397614 605.747925,453.704346 611.189209,437.161285 
	C614.893433,425.899261 618.163269,424.040588 629.964294,424.003540 
	C642.100159,423.965424 654.236206,423.995087 667.392456,423.995087 
	C671.010254,474.698212 674.605835,525.090393 678.228699,575.864319 
	C666.447021,575.864319 655.685425,575.864319 644.331421,575.864319 
	C642.521118,535.684570 640.704895,495.373749 638.888733,455.062927 
	C638.634644,454.976868 638.380554,454.890808 638.126465,454.804749 
	C626.011292,495.132141 613.896179,535.459534 601.719238,575.992615 
	C588.877258,575.992615 575.911133,575.992615 562.584534,575.992615 
	C550.399109,535.484558 538.171448,494.836060 525.943787,454.187531 
	C525.761169,454.274414 525.578613,454.361298 525.396057,454.448181 
	C523.595337,494.809540 521.794678,535.170898 519.979736,575.851685 
	C508.947083,575.851685 498.082123,575.851685 486.123535,575.851685 
	C489.698273,525.214355 493.256592,474.809753 496.826538,424.240356 
	C512.121948,424.240356 526.403015,424.065887 540.675659,424.333313 
	C545.791077,424.429169 549.096741,427.854889 551.267090,432.800720 
z"/>
<path fill="#025C9C" opacity="1.000000" stroke="none" 
	d="
M940.007568,290.993927 
	C920.557800,270.620300 905.320618,248.021957 896.626892,221.384491 
	C892.334045,208.231506 891.381287,194.630920 892.199341,180.923767 
	C892.392090,177.693146 893.498230,174.337509 894.913391,171.389465 
	C902.387695,155.819473 910.082275,140.355026 917.745667,124.876381 
	C918.381714,123.591721 919.354431,122.473770 921.089661,121.562454 
	C920.402527,125.148689 919.686340,128.729645 919.032898,132.322021 
	C915.385742,152.373474 920.423767,170.902679 928.769958,188.924103 
	C943.959045,221.720947 967.991028,246.874649 996.791260,267.902496 
	C1025.896606,289.153137 1058.065796,304.636688 1091.441284,317.811615 
	C1092.807129,318.350739 1094.169800,318.897736 1095.558960,319.450989 
	C1092.142456,339.503387 1088.774048,359.272858 1085.260254,379.896362 
	C1031.063721,359.412231 981.080627,332.884399 940.007568,290.993927 
z"/>
<path fill="#020202" opacity="1.000000" stroke="none" 
	d="
M448.027954,551.020142 
	C425.587219,577.478210 397.140930,586.377625 364.364197,578.636597 
	C332.985352,571.225708 312.610291,550.541748 305.733185,519.083801 
	C292.987976,460.783203 338.191040,413.324615 394.382751,419.799255 
	C434.037964,424.368469 463.125366,455.612122 465.187531,495.726837 
	C466.237640,516.153931 460.696106,534.494751 448.027954,551.020142 
M364.176392,543.425659 
	C376.122162,549.369690 388.411255,550.214783 400.841583,545.333557 
	C420.509918,537.610107 432.300873,516.019836 428.875153,492.660095 
	C426.267242,474.877045 417.170563,461.122192 399.656342,454.771423 
	C382.888916,448.691437 367.350586,451.840118 354.277496,464.032257 
	C330.835205,485.894989 335.779175,526.925659 364.176392,543.425659 
z"/>
<path fill="#030303" opacity="1.000000" stroke="none" 
	d="
M974.412598,445.624939 
	C985.692810,464.051941 984.690002,488.045563 971.656494,501.704956 
	C967.039978,506.543182 961.095215,510.114105 954.705933,515.080444 
	C970.314453,535.212708 986.355225,555.902405 1002.294006,576.460571 
	C991.852661,579.907349 971.960022,579.321411 962.008362,574.486755 
	C958.388855,572.728516 954.680481,570.118103 952.349426,566.921692 
	C942.261169,553.088318 932.484619,539.015503 923.020874,524.747192 
	C920.616455,521.122070 918.384460,519.179993 913.971924,519.767822 
	C911.194946,520.137756 908.328613,519.836792 905.125977,519.836792 
	C905.125977,538.435852 905.125977,557.216980 905.125977,576.260132 
	C893.509399,576.260132 882.267212,576.260132 870.743713,576.260132 
	C870.743713,525.965515 870.743713,475.892059 870.743713,425.175415 
	C879.543274,424.746338 888.291077,423.822205 897.015869,424.003479 
	C912.613831,424.327637 928.301819,424.450836 943.755249,426.302032 
	C956.329773,427.808350 966.761902,434.639252 974.412598,445.624939 
M916.472778,451.840607 
	C912.730103,451.840607 908.987366,451.840607 905.003296,451.840607 
	C905.003296,459.049744 905.003357,465.684052 905.003357,472.318359 
	C905.003357,478.933380 905.003296,485.548401 905.003296,492.499603 
	C914.549500,493.555725 923.604309,493.623932 932.530701,491.127899 
	C942.195557,488.425415 946.234375,483.300323 946.485168,473.695984 
	C946.747437,463.654694 942.696350,456.889984 933.622559,454.180481 
	C928.459656,452.638733 922.856445,452.571686 916.472778,451.840607 
z"/>
<path fill="#025C9C" opacity="1.000000" stroke="none" 
	d="
M971.463501,167.514709 
	C958.587524,148.074585 952.113831,127.228424 953.049255,104.072990 
	C953.568787,91.212959 957.751465,80.267456 967.551331,71.881500 
	C978.109619,62.846699 988.962769,54.156567 999.687317,45.316055 
	C1000.102051,45.644447 1000.516785,45.972843 1000.931519,46.301235 
	C1000.619324,47.197514 1000.510498,48.247837 999.965332,48.967632 
	C984.569702,69.294907 986.075928,90.352028 997.251953,111.791740 
	C1008.009583,132.428986 1024.539551,147.729675 1043.251343,160.899414 
	C1067.520508,177.980606 1094.317505,190.112518 1121.938599,200.580185 
	C1122.845459,200.923889 1123.744873,201.287903 1124.788086,201.697571 
	C1119.661865,220.964310 1114.592529,240.017365 1109.363647,259.670227 
	C1101.976562,256.731201 1094.854248,254.028717 1087.834595,251.081848 
	C1057.934814,238.529816 1029.528442,223.371506 1004.314087,202.727249 
	C991.881775,192.548233 980.765564,181.119720 971.463501,167.514709 
z"/>
<path fill="#030303" opacity="1.000000" stroke="none" 
	d="
M836.878906,535.071045 
	C842.052673,548.904663 847.111694,562.368774 852.337097,576.275513 
	C839.749023,576.275513 827.842590,576.275513 815.581299,576.275513 
	C811.404663,564.246277 807.174500,552.077148 802.957520,539.903442 
	C802.253479,537.871155 801.856750,536.061340 798.784973,536.091309 
	C780.974304,536.265442 763.161072,536.176392 745.040833,536.176392 
	C740.720825,548.615295 736.488342,560.999390 732.044800,573.307312 
	C731.575439,574.607361 729.884766,576.356323 728.729004,576.380371 
	C717.599121,576.612732 706.462341,576.519592 694.430054,576.519592 
	C697.870239,567.009155 700.759277,557.905457 704.411133,549.118835 
	C720.955994,509.310120 737.767883,469.612335 754.326843,429.809448 
	C756.182434,425.349060 758.580200,423.627502 763.566895,424.021118 
	C770.683228,424.582764 777.897644,424.488678 785.029663,424.036133 
	C789.108643,423.777313 790.532166,425.842682 791.829529,428.901398 
	C806.790955,464.175232 821.781433,499.436768 836.878906,535.071045 
M784.441345,489.034119 
	C780.798889,478.561279 777.156433,468.088440 773.363464,457.182892 
	C767.452026,474.105896 761.645630,490.728027 755.725342,507.676270 
	C767.687073,507.676270 779.100098,507.676270 791.004333,507.676270 
	C788.883179,501.554260 786.836731,495.647858 784.441345,489.034119 
z"/>
<path fill="#030303" opacity="1.000000" stroke="none" 
	d="
M255.999664,483.830231 
	C262.477386,483.830231 268.455139,483.830231 274.718292,483.830231 
	C274.718292,493.782043 274.718292,503.546478 274.718292,513.717407 
	C255.184128,513.717407 235.454681,513.717407 215.363159,513.717407 
	C215.363159,524.646423 215.363159,535.178528 215.363159,546.161743 
	C236.092209,546.161743 256.813690,546.161743 277.767090,546.161743 
	C277.767090,556.376282 277.767090,566.147522 277.767090,576.221802 
	C245.074905,576.221802 212.357147,576.221802 179.399200,576.221802 
	C179.399200,525.817322 179.399200,475.604523 179.399200,425.107483 
	C211.796600,425.107483 244.028885,425.107483 276.554443,425.107483 
	C276.554443,434.888763 276.554443,444.628540 276.554443,454.882355 
	C256.185425,454.882355 235.807159,454.882355 215.219635,454.882355 
	C215.219635,464.654968 215.219635,473.919495 215.219635,483.830231 
	C228.649292,483.830231 242.074509,483.830231 255.999664,483.830231 
z"/>
<path fill="#FDFDFD" opacity="1.000000" stroke="none" 
	d="
M363.855316,543.232910 
	C335.779175,526.925659 330.835205,485.894989 354.277496,464.032257 
	C367.350586,451.840118 382.888916,448.691437 399.656342,454.771423 
	C417.170563,461.122192 426.267242,474.877045 428.875153,492.660095 
	C432.300873,516.019836 420.509918,537.610107 400.841583,545.333557 
	C388.411255,550.214783 376.122162,549.369690 363.855316,543.232910 
z"/>
<path fill="#FDFDFD" opacity="1.000000" stroke="none" 
	d="
M916.962158,451.840576 
	C922.856445,452.571686 928.459656,452.638733 933.622559,454.180481 
	C942.696350,456.889984 946.747437,463.654694 946.485168,473.695984 
	C946.234375,483.300323 942.195557,488.425415 932.530701,491.127899 
	C923.604309,493.623932 914.549500,493.555725 905.003296,492.499603 
	C905.003296,485.548401 905.003357,478.933380 905.003357,472.318359 
	C905.003357,465.684052 905.003296,459.049744 905.003296,451.840607 
	C908.987366,451.840607 912.730103,451.840607 916.962158,451.840576 
z"/>
<path fill="#F8F8F8" opacity="1.000000" stroke="none" 
	d="
M784.615845,489.387756 
	C786.836731,495.647858 788.883179,501.554260 791.004333,507.676270 
	C779.100098,507.676270 767.687073,507.676270 755.725342,507.676270 
	C761.645630,490.728027 767.452026,474.105896 773.363464,457.182892 
	C777.156433,468.088440 780.798889,478.561279 784.615845,489.387756 
z"/>
</svg>